<svg xmlns="http://www.w3.org/2000/svg"  viewBox="0 0 48 48" width="16px" height="16px"><polygon fill="#3ddab4" points="5.634,7.018 13.83,18.66 18,7.018"/><path fill="#3ddab4" d="M24,44c11.028,0,20-8.972,20-20c0-10.006-7.394-18.295-17-19.75v4.042C34.392,9.701,40,16.204,40,24 c0,8.822-7.178,16-16,16S8,32.822,8,24c0-4.841,2.161-9.187,5.57-12.123l-2.311-3.282C6.827,12.266,4,17.809,4,24 C4,35.028,12.972,44,24,44z"/><path fill="#00b569" d="M11.025,14.676c0.741-1.027,1.587-1.974,2.545-2.799l-2.311-3.282 c-0.964,0.799-1.847,1.691-2.647,2.654L11.025,14.676z"/></svg>